# xmcd CD database file
#
# Track frame offsets:
#	180
#	17127
#	34391
#	48343
#	58718
#	71521
#	78317
#	95937
#	103036
#	115601
#	126691
#	137216
#	148270
#	161708
#	179828
#
# Disc length: 2612 seconds
#
# Revision: 0
# Processed by: cddbd v1.5.1PL0 Copyright (c) Steve Scherf et al.
# Submitted via: CDex 1.51
#
DISCID=ea0a320f
DTITLE=Kay McCarthy and Her Group - Fadò Fadò... A Long, Long Time Ago...
DYEAR=2000
DGENRE=New Age
TTITLE0=A Day In The Life Of Butterfly
TTITLE1=Be Gone, My Love!
TTITLE2=Cunla
TTITLE3=The Three-Coloured Ribbon
TTITLE4=The Banshee
TTITLE5=A Ten-Penny Bit In A Swallow's Nest
TTITLE6=Cockles And Mussels
TTITLE7=The Waxies' Dargle
TTITLE8=Eileen, My Secret Treasure
TTITLE9=The Sailors' Hornpipe
TTITLE10=Return, Repent My Dear Son
TTITLE11=Johnny, I Hardly Knew Ye!
TTITLE12=The Spinning-Wheel
TTITLE13=The Rathlin Bog
TTITLE14=Sean O'Duyer Of The Glen
EXTD=YEAR: 2000
EXTT0=
EXTT1=
EXTT2=
EXTT3=
EXTT4=
EXTT5=
EXTT6=
EXTT7=
EXTT8=
EXTT9=
EXTT10=
EXTT11=
EXTT12=
EXTT13=
EXTT14=
PLAYORDER=
